# xmcd
# 
# Track frame offsets:
#     150
#     19004
#     36562
#     50469
#     69544
#     87864
#     106110
#     128702
#     153314
#     172727
#     192480
# 
# Disc length: 2804
# 
# Revision: 0
# Processed by: cddbd v1.5.2PL0 Copyright (c) Steve Scherf et al.
# Submitted via: fre:ac v1.0.31
# 
DISCID=880af20b
DTITLE=SevenT's - SevenT's and Friends
DYEAR=0
DGENRE=Blues
TTITLE0=Going By Train
TTITLE1=Gamblers Blues
TTITLE2=Carbon Dioxide
TTITLE3=Today
TTITLE4=Unemployed
TTITLE5=Barfly
TTITLE6=Circus
TTITLE7=Always On My Mind
TTITLE8=Sad Sad Song
TTITLE9=Starting Over
TTITLE10=Maneater
EXTD=
EXTT0=
EXTT1=
EXTT2=
EXTT3=
EXTT4=
EXTT5=
EXTT6=
EXTT7=
EXTT8=
EXTT9=
EXTT10=
PLAYORDER=
